<?xml version="1.0" encoding="UTF-8" standalone="no"?>
<svg
   xmlns:dc="http://purl.org/dc/elements/1.1/"
   xmlns:cc="http://creativecommons.org/ns#"
   xmlns:rdf="http://www.w3.org/1999/02/22-rdf-syntax-ns#"
   xmlns:svg="http://www.w3.org/2000/svg"
   xmlns="http://www.w3.org/2000/svg"
   xmlns:xlink="http://www.w3.org/1999/xlink"
   width="355"
   height="355"
   viewBox="0 0 355 355"
   id="svg2"
   version="1.1">
  <defs
     id="defs4">
    <linearGradient
       id="linearGradient905">
      <stop
         style="stop-color:#58a1bf;stop-opacity:1"
         offset="0"
         id="stop901" />
      <stop
         style="stop-color:#a2c9de;stop-opacity:0.90588236"
         offset="1"
         id="stop903" />
    </linearGradient>
    <linearGradient
       id="linearGradient4213">
      <stop
         id="stop4215"
         offset="0"
         style="stop-color:#58a1bf;stop-opacity:1" />
      <stop
         id="stop4217"
         offset="1"
         style="stop-color:#bce8c6;stop-opacity:0.90588236" />
    </linearGradient>
    <linearGradient
       gradientUnits="userSpaceOnUse"
       y2="1166.4901"
       x2="451.5939"
       y1="786.98505"
       x1="79.303314"
       id="linearGradient4223"
       xlink:href="#linearGradient4213" />
    <linearGradient
       gradientUnits="userSpaceOnUse"
       y2="241.85672"
       x2="293.92065"
       y1="282.41232"
       x1="251.05606"
       id="linearGradient899"
       xlink:href="#linearGradient905" />
  </defs>
  <metadata
     id="metadata7">
    <rdf:RDF>
      <cc:Work
         rdf:about="">
        <dc:format>image/svg+xml</dc:format>
        <dc:type
           rdf:resource="http://purl.org/dc/dcmitype/StillImage" />
        <dc:title></dc:title>
      </cc:Work>
    </rdf:RDF>
  </metadata>
  <g
     style="fill-opacity:1;fill:url(#linearGradient4223)"
     id="layer1"
     transform="translate(0,-698.0315)">
    <path
       d="M 83.710606,948.58088 A 122.13954,122.13954 0 0 1 37.901269,782.15626 122.13954,122.13954 0 0 1 204.26357,736.12113 122.13954,122.13954 0 0 1 250.52441,902.42081 122.13954,122.13954 0 0 1 84.287665,948.90728"
       id="path3348"
       style="opacity:1;fill:#6c5353;fill-opacity:0.11594203;stroke:none;stroke-width:0;stroke-linecap:round;stroke-linejoin:bevel;stroke-miterlimit:4;stroke-dasharray:none;stroke-opacity:1" />
    <path
       id="path3295"
       transform="translate(0,698.03148)"
       d="m 154.32031,21.091797 0,100.894533 108.07422,0 C 256.62352,85.756403 234.66245,54.12864 202.73242,36.0625 187.83856,27.697292 171.33637,22.594244 154.32031,21.091797 Z m -30,0.900391 C 88.197456,27.781284 56.660431,49.666787 38.597656,81.480469 31.501875,94.028417 26.715096,107.74774 24.464844,121.98633 l 99.855466,0 z M 23.550781,151.98633 c 3.575842,39.19425 26.066341,74.1725 60.242188,93.6914 L 84.363281,246 c 12.398491,6.93578 25.925759,11.6245 39.957029,13.84961 l 0,-107.86328 z"
       style="opacity:1;fill:#4197a6;fill-opacity:1;stroke:none;stroke-width:0;stroke-linecap:round;stroke-linejoin:bevel;stroke-miterlimit:4;stroke-dasharray:none;stroke-opacity:1" />
    <path
       id="path4136"
       transform="translate(0,698.03148)"
       d="M 140.3457 8.6230469 C 56.270852 8.3744884 -10.235031 100.61646 17.734375 180.42383 C 38.056167 255.25884 129.99325 294.54279 198.59375 262.98438 C 225.21791 289.4878 251.60761 316.23724 278.37891 342.58594 C 290.08216 352.81624 307.73827 347.85209 316.35547 336.21289 C 325.52592 327.01519 338.33053 317.14224 334.73828 302.33594 C 331.18645 288.66717 318.0239 281.06875 309.24219 270.84375 C 290.84223 252.44381 272.44097 234.04254 254.04102 215.64258 C 305.83251 145.35252 264.77782 33.617236 179.82031 13.535156 C 168.29224 10.331886 156.32486 8.7030181 144.36328 8.7050781 C 143.02021 8.6541064 141.68022 8.6269922 140.3457 8.6230469 z M 149.70703 25.470703 A 115.05109 115.05109 0 0 1 201.13867 40.261719 A 115.05109 115.05109 0 0 1 244.71484 196.91016 A 115.05109 115.05109 0 0 1 88.125 240.69922 L 87.582031 240.39062 A 115.05109 115.05109 0 0 1 44.429688 83.625 A 115.05109 115.05109 0 0 1 149.70703 25.470703 z "
       style="opacity:1;fill:url(#linearGradient899);fill-opacity:1;stroke:none;stroke-width:0;stroke-linecap:round;stroke-linejoin:round;stroke-miterlimit:4;stroke-dasharray:none;stroke-opacity:1" />
  </g>
</svg>
